<svg width="18" height="19" viewBox="0 0 18 19" fill="none" xmlns="http://www.w3.org/2000/svg">
    <path d="M4.67702 15.1586C4.81952 14.8159 4.95002 14.4679 5.06927 14.1131M10.8188 16.4306C11.2154 15.3119 11.5219 14.1633 11.7353 12.9956M14.7675 13.6196C15.0495 12.1001 15.1973 10.5334 15.1973 8.93215C15.1975 7.8826 14.9309 6.85022 14.4224 5.93206C13.9139 5.0139 13.1804 4.2401 12.2906 3.68341C11.4009 3.12672 10.3842 2.80541 9.33612 2.7497C8.28805 2.69398 7.24302 2.90568 6.29927 3.36489M2.44727 12.0461C2.68952 11.0471 2.81777 10.0046 2.81777 8.93215C2.81777 7.5859 3.24752 6.33939 3.97802 5.32389M9.00752 8.9314C9.00986 11.5315 8.48743 14.1054 7.47152 16.4989M5.75852 11.1799C5.85977 10.4449 5.91227 9.6949 5.91227 8.93215C5.91227 8.11133 6.23833 7.32414 6.81873 6.74374C7.39914 6.16334 8.18633 5.83727 9.00714 5.83727C9.82795 5.83727 10.6151 6.16334 11.1955 6.74374C11.7759 7.32414 12.102 8.11133 12.102 8.93215C12.102 9.30865 12.093 9.6829 12.0743 10.0549" stroke="#868F97" stroke-width="1.125" stroke-linecap="round" stroke-linejoin="round"/>
</svg>
