<svg width="22" height="21" viewBox="0 0 22 21" fill="none" xmlns="http://www.w3.org/2000/svg">
<path d="M10.258 0.0155373C8.37008 0.197372 6.57312 0.865883 5.05427 1.9462C4.44993 2.37939 3.36962 3.43831 2.90434 4.05334C2.18235 5.01599 1.64219 6.03213 1.29457 7.10709L1.14482 7.57773H0.561878C0.240993 7.57773 -0.0103671 7.59912 0.000329089 7.62586C0.0324176 7.71677 1.46036 9.33724 1.49779 9.32655C1.51918 9.3212 1.87751 8.93079 2.28396 8.46016L3.03269 7.60447L2.58345 7.58842C2.21978 7.57773 2.12887 7.55633 2.12887 7.49216C2.12887 7.44937 2.20909 7.20336 2.3107 6.94665C3.77073 3.16021 7.38603 0.764269 11.4078 0.914015C13.4935 0.988888 15.3333 1.68414 16.9805 3.01581C20.1626 5.58824 21.291 10.0058 19.7294 13.7868C18.9967 15.5571 17.7078 17.1027 16.0981 18.1402C15.4991 18.5252 14.4722 18.9959 13.7877 19.1991C12.9373 19.4558 12.2902 19.5628 11.3543 19.5949C7.35394 19.7393 3.69051 17.2738 2.26792 13.482C2.07539 12.9739 1.81868 11.9418 1.77589 11.5086L1.73846 11.1609H1.28922H0.83463L0.872067 11.4925C1.00577 12.7547 1.55127 14.3324 2.24652 15.4822C2.90969 16.5839 4.08092 17.8621 5.05427 18.5573C8.83536 21.2474 13.8412 21.1351 17.4297 18.2739C19.8738 16.3272 21.3285 13.3323 21.3285 10.2518C21.3285 5.2834 17.6811 0.988888 12.7448 0.14389C12.1191 0.0369301 10.7767 -0.0325966 10.258 0.0155373Z" fill="white"/>
<path d="M10.6213 5.873L10.6052 6.41316L10.2683 6.48268C9.56769 6.62708 9.03823 6.98005 8.77083 7.48812C8.64247 7.72879 8.62643 7.8197 8.62643 8.29568C8.62643 8.89467 8.7013 9.10324 9.06497 9.499C9.29494 9.75571 9.89927 10.1461 10.3271 10.3066L10.632 10.4242V11.8682V13.3122L10.1667 13.2801C9.90462 13.2641 9.48747 13.1892 9.22542 13.1143C8.96871 13.0394 8.74944 12.9753 8.73339 12.9753C8.67991 12.9753 8.38577 13.6919 8.4232 13.7293C8.5676 13.863 9.61583 14.077 10.3378 14.109L10.6052 14.1251L10.6213 14.6439L10.6373 15.168H11.0598H11.4823L11.4984 14.6225L11.5144 14.0823L11.8567 14.0128C12.6108 13.8577 13.2793 13.3924 13.552 12.8309C13.7178 12.4939 13.782 11.9003 13.6857 11.5527C13.5306 10.9858 13.0332 10.5151 12.092 10.0552L11.4877 9.76106V8.47752V7.19933H11.7711C12.0011 7.19933 12.568 7.30094 13.1776 7.45069C13.2686 7.47208 13.306 7.42395 13.429 7.11376C13.5039 6.91588 13.5574 6.73939 13.5467 6.718C13.4825 6.61104 12.4664 6.42385 11.7551 6.38642L11.5144 6.37037L11.4984 5.84626L11.4823 5.3275H11.0598H10.6373L10.6213 5.873ZM10.632 8.29568C10.632 9.10324 10.6159 9.33856 10.5624 9.33856C10.4822 9.33856 10.1239 9.10859 9.91532 8.91606C9.63187 8.654 9.52491 8.16733 9.6907 7.85179C9.84045 7.563 10.2736 7.2635 10.541 7.25281C10.6266 7.25281 10.632 7.33838 10.632 8.29568ZM11.9636 11.0179C12.5145 11.3548 12.7177 11.6436 12.7177 12.0928C12.7177 12.3977 12.6428 12.5848 12.4343 12.8095C12.2471 13.0073 11.7978 13.2427 11.6107 13.2427H11.4877V12.0393C11.4877 10.6595 11.4609 10.713 11.9636 11.0179Z" fill="white"/>
</svg>
