<svg width="59" height="59" viewBox="0 0 59 59" fill="none" xmlns="http://www.w3.org/2000/svg">
<g clip-path="url(#clip0_325_8299)">
<path d="M38.1692 51.0563L50.3529 38.8745L38.1211 51.0563H38.1403H38.1692Z" fill="#A36DEA"/>
<path d="M18.541 49.684L19.9131 51.0564H19.9458L7.00391 38.147L18.541 49.684Z" fill="#A36DEA"/>
<path d="M7.73047 19.163L19.9199 6.97925H19.9141L7.73047 19.163Z" fill="#A36DEA"/>
<path d="M24.6919 18.7375L24.7477 18.6816L18.6934 24.735L24.6919 18.7375Z" fill="#A36DEA"/>
<path d="M24.4282 39.0304L4.53906 19.1379L18.6934 33.2965L24.4282 39.0304Z" fill="#A36DEA"/>
<path d="M58.0374 36.7205V36.5993L57.9835 36.6666L56.8693 35.5522L57.9855 36.6666L56.8712 35.5503L44.0871 22.766L35.5714 14.2508L35.2635 13.9429H26.2321H22.8239H22.7893H22.77L22.3678 14.3451L12.6301 24.0845L12.6051 24.1114L15.9306 27.4374L15.9575 27.4124L24.6849 18.6816H33.3449L53.54 38.8763L53.5208 38.8955L39.0874 53.3312H18.977L0 34.3492V41.0436L12.2857 53.3293L16.9986 58.0431H41.0388L45.7518 53.3293L56.8712 42.208L58.0259 41.0532V36.7205H58.0374Z" fill="#A36DEA"/>
<path d="M14.2428 35.518L18.1687 39.4542L18.2149 39.5003L22.7893 44.0871H35.2655L44.0871 35.2331L45.4111 33.9089L42.0742 30.581L33.3064 39.3502H24.7464L24.427 39.0307L4.43777 19.2056L4.52437 19.119L18.9423 4.7006H39.1201L57.895 23.4863L58.0336 23.6788V17.0018L41.0407 0.00610352H41.0119L41.0369 0.0426741L41.0119 0.0657711V0.00610352H16.9986L1.09886 15.9027L0 17.0018V21.2728L13.9696 35.2428L14.2428 35.518Z" fill="#A36DEA"/>
<path d="M58.0373 26.7909L38.2521 7.02161H38.2425V6.96387H19.941H19.9198L7.72461 19.1784L11.0501 22.5044L21.8751 11.6776H36.2872C43.5385 18.934 50.7873 26.1916 58.0335 33.4506V26.7909H58.0373Z" fill="#A36DEA"/>
<path d="M50.3339 38.8417L47.0219 35.5292L47.0065 35.5138L36.1873 46.3348H21.8771L0 24.4541V31.108L18.542 49.6512L19.9469 51.0563H26.5978H31.4685H38.1213L38.1406 51.037L50.3339 38.8417Z" fill="#A36DEA"/>
</g>
<defs>
<clipPath id="clip0_325_8299">
<rect width="58.0432" height="58.0432" fill="white"/>
</clipPath>
</defs>
</svg>
