<svg width="65" height="66" viewBox="0 0 65 66" fill="none" xmlns="http://www.w3.org/2000/svg">
<g clip-path="url(#clip0_103_4538)">
<path d="M50.2411 13.4829V41.0346V52.3795C50.2411 53.6689 49.7288 54.9056 48.817 55.8174C47.9052 56.7292 46.6685 57.2415 45.379 57.2415H19.448C18.1586 57.2415 16.9218 56.7292 16.01 55.8174C15.0982 54.9056 14.5859 53.6689 14.5859 52.3795V13.4829C14.5859 12.1934 15.0982 10.9567 16.01 10.0449C16.9218 9.1331 18.1586 8.62085 19.448 8.62085H45.379C46.6685 8.62085 47.9052 9.1331 48.817 10.0449C49.7288 10.9567 50.2411 12.1934 50.2411 13.4829Z" fill="url(#paint0_linear_103_4538)" fill-opacity="0.24"/>
<path d="M38.8963 8.62085H25.9308M45.379 8.62085C46.6686 8.62085 47.9052 9.1331 48.817 10.0449C49.7288 10.9567 50.2411 12.1934 50.2411 13.4829V52.3795C50.2411 53.6691 49.7288 54.9056 48.817 55.8174C47.9052 56.7292 46.6685 57.2415 45.379 57.2415H19.448C18.1586 57.2415 16.9218 56.7292 16.01 55.8174C15.0982 54.9056 14.5859 53.6689 14.5859 52.3795V13.4829C14.5859 12.1934 15.0982 10.9567 16.01 10.0449C16.9218 9.1331 18.1586 8.62085 19.448 8.62085" stroke="black" stroke-width="1.62069" stroke-linecap="round" stroke-linejoin="round"/>
<path opacity="0.32" d="M21.0703 19.9655L24.3117 16.7241L27.5531 19.9655L30.7945 18.3448L32.4151 19.9655H43.76" stroke="black" stroke-width="1.62069" stroke-linecap="round" stroke-linejoin="round"/>
<path opacity="0.48" d="M21.0703 26.4485H43.76" stroke="black" stroke-width="1.62069" stroke-linecap="round" stroke-linejoin="round"/>
<path d="M21.0703 32.9312H43.76" stroke="black" stroke-width="1.62069" stroke-linecap="round" stroke-linejoin="round"/>
<path d="M22.6914 46.3018C26.338 46.3018 26.338 42.6553 26.338 42.6553C26.338 42.6553 26.338 46.3018 29.9845 46.3018C26.338 46.3018 26.338 49.9484 26.338 49.9484C26.338 49.9484 26.338 46.3018 22.6914 46.3018Z" fill="black"/>
<path d="M42.95 42.6553H42.9662M26.338 42.6553C26.338 42.6553 26.338 46.3018 22.6914 46.3018C26.338 46.3018 26.338 49.9484 26.338 49.9484C26.338 49.9484 26.338 46.3018 29.9845 46.3018C26.338 46.3018 26.338 42.6553 26.338 42.6553Z" stroke="black" stroke-width="2.43103" stroke-linecap="round" stroke-linejoin="round"/>
</g>
<defs>
<linearGradient id="paint0_linear_103_4538" x1="32.4135" y1="8.62085" x2="32.4135" y2="57.2415" gradientUnits="userSpaceOnUse">
<stop stop-opacity="0"/>
<stop offset="1"/>
</linearGradient>
<clipPath id="clip0_103_4538">
<rect width="64.8276" height="64.8276" fill="white" transform="translate(0 0.517334)"/>
</clipPath>
</defs>
</svg>
