<svg width="65" height="65" viewBox="0 0 65 65" fill="none" xmlns="http://www.w3.org/2000/svg">
<g clip-path="url(#clip0_496_26215)">
<path d="M50.5621 11.4435C51.4827 12.3678 52 13.6214 52 14.9286V35.4643V36.762C50.963 36.4521 49.8645 36.2857 48.7273 36.2857C42.4011 36.2857 37.2727 41.4344 37.2727 47.7857C37.2727 51.0036 38.5892 53.9128 40.7107 56H32.3636H20.9091C19.6072 56 18.3585 55.4807 17.4378 54.5564C16.5172 53.6322 16 52.3785 16 51.0714V14.9286C16 13.6214 16.5172 12.3678 17.4378 11.4435C18.3585 10.5193 19.6072 10 20.9091 10H47.0909C48.3928 10 49.6415 10.5193 50.5621 11.4435Z" fill="url(#paint0_linear_496_26215)" fill-opacity="0.24"/>
<path d="M52 29.7143V14.9286C52 13.6214 51.4827 12.3678 50.5621 11.4435C49.6415 10.5193 48.3928 10 47.0909 10H20.9091C19.6072 10 18.3585 10.5193 17.4378 11.4435C16.5172 12.3678 16 13.6214 16 14.9286V51.0714C16 52.3785 16.5172 53.6322 17.4378 54.5564C18.3585 55.4807 19.6072 56 20.9091 56H32.3636" stroke="white" stroke-width="1.62069" stroke-linecap="round" stroke-linejoin="round"/>
<path d="M60 47.5C60 50.315 58.9885 52.8938 57.3092 54.8929C55.1996 57.404 52.0363 59 48.5 59C42.1487 59 37 53.8513 37 47.5C37 41.1487 42.1487 36 48.5 36C54.8513 36 60 41.1487 60 47.5Z" fill="url(#paint1_linear_496_26215)" fill-opacity="0.24" stroke="white" stroke-width="1.62069" stroke-linecap="round" stroke-linejoin="round"/>
<path d="M22 27V24H45V27H22Z" fill="white" stroke="white" stroke-width="1.62069" stroke-linecap="round" stroke-linejoin="round"/>
<path opacity="0.4" d="M22 18H45" stroke="white" stroke-width="1.62069" stroke-linecap="round" stroke-linejoin="round"/>
<path opacity="0.4" d="M22 34H33" stroke="white" stroke-width="1.62069" stroke-linecap="round" stroke-linejoin="round"/>
<path d="M43 47.5L46.3333 51L53 44" stroke="white" stroke-width="1.62069" stroke-linecap="round" stroke-linejoin="round"/>
</g>
<defs>
<linearGradient id="paint0_linear_496_26215" x1="34" y1="10" x2="34" y2="56" gradientUnits="userSpaceOnUse">
<stop stop-color="white" stop-opacity="0"/>
<stop offset="1" stop-color="white"/>
</linearGradient>
<linearGradient id="paint1_linear_496_26215" x1="48.5" y1="36" x2="48.5" y2="59" gradientUnits="userSpaceOnUse">
<stop stop-color="white" stop-opacity="0"/>
<stop offset="1" stop-color="white"/>
</linearGradient>
<clipPath id="clip0_496_26215">
<rect width="65" height="65" fill="white"/>
</clipPath>
</defs>
</svg>
