<svg width="65" height="66" viewBox="0 0 65 66" fill="none" xmlns="http://www.w3.org/2000/svg">
<g clip-path="url(#clip0_103_4551)">
<path d="M48.817 11.6653C49.7288 12.5771 50.2411 13.8138 50.2411 15.1033V35.3619V36.6421C49.2141 36.3364 48.1261 36.1722 46.9997 36.1722C40.7341 36.1722 35.6549 41.2515 35.6549 47.5171C35.6549 50.6915 36.9587 53.5614 39.06 55.6205H30.7928H19.448C18.1586 55.6205 16.9218 55.1082 16.01 54.1964C15.0982 53.2846 14.5859 52.0479 14.5859 50.7585V15.1033C14.5859 13.8138 15.0982 12.5771 16.01 11.6653C16.9218 10.7535 18.1586 10.2412 19.448 10.2412H45.379C46.6685 10.2412 47.9052 10.7535 48.817 11.6653Z" fill="url(#paint0_linear_103_4551)" fill-opacity="0.24"/>
<path d="M50.2411 29.6895V15.1033C50.2411 13.8138 49.7288 12.5771 48.817 11.6653C47.9052 10.7535 46.6685 10.2412 45.379 10.2412H19.448C18.1586 10.2412 16.9218 10.7535 16.01 11.6653C15.0982 12.5771 14.5859 13.8138 14.5859 15.1033V50.7585C14.5859 52.0479 15.0982 53.2846 16.01 54.1964C16.9218 55.1082 18.1586 55.6205 19.448 55.6205H30.7928" stroke="black" stroke-width="1.62069" stroke-linecap="round" stroke-linejoin="round"/>
<path d="M58.3459 47.5172C58.3459 50.2942 57.348 52.8382 55.6914 54.8103C53.6102 57.2875 50.4896 58.862 47.0011 58.862C40.7355 58.862 35.6562 53.7828 35.6562 47.5172C35.6562 41.2516 40.7355 36.1724 47.0011 36.1724C53.2667 36.1724 58.3459 41.2516 58.3459 47.5172Z" fill="url(#paint1_linear_103_4551)" fill-opacity="0.24" stroke="black" stroke-width="1.62069" stroke-linecap="round" stroke-linejoin="round"/>
<path d="M21.0703 28.0688V24.8274H43.76V28.0688H21.0703Z" fill="black" stroke="black" stroke-width="1.62069" stroke-linecap="round" stroke-linejoin="round"/>
<path opacity="0.4" d="M21.0703 18.3447H43.76" stroke="black" stroke-width="1.62069" stroke-linecap="round" stroke-linejoin="round"/>
<path opacity="0.4" d="M21.0703 34.5515H32.4151" stroke="black" stroke-width="1.62069" stroke-linecap="round" stroke-linejoin="round"/>
<path d="M42.1367 47.517L45.3781 50.7584L51.8609 44.2756" stroke="black" stroke-width="1.62069" stroke-linecap="round" stroke-linejoin="round"/>
</g>
<defs>
<linearGradient id="paint0_linear_103_4551" x1="32.4135" y1="10.2412" x2="32.4135" y2="55.6205" gradientUnits="userSpaceOnUse">
<stop stop-opacity="0"/>
<stop offset="1"/>
</linearGradient>
<linearGradient id="paint1_linear_103_4551" x1="47.0011" y1="36.1724" x2="47.0011" y2="58.862" gradientUnits="userSpaceOnUse">
<stop stop-opacity="0"/>
<stop offset="1"/>
</linearGradient>
<clipPath id="clip0_103_4551">
<rect width="64.8276" height="64.8276" fill="white" transform="translate(0 0.51709)"/>
</clipPath>
</defs>
</svg>
