<svg width="65" height="65" viewBox="0 0 65 65" fill="none" xmlns="http://www.w3.org/2000/svg">
<g clip-path="url(#clip0_496_26192)">
<path d="M33.5 41.6364V55M33.5 41.6364C39.2686 41.6364 44.3053 38.5651 47 34M33.5 41.6364C27.7313 41.6364 22.6947 38.5651 20 34M23.7589 55H43.2401" stroke="white" stroke-width="1.62069" stroke-linecap="round" stroke-linejoin="round"/>
<path d="M44 18.6429C44 13.3173 39.5228 9 34 9C28.4772 9 24 13.3173 24 18.6429V26.3571C24 31.6827 28.4772 36 34 36C39.5228 36 44 31.6827 44 26.3571V18.6429Z" fill="url(#paint0_linear_496_26192)" fill-opacity="0.32" stroke="white" stroke-width="1.62069" stroke-linecap="round" stroke-linejoin="round"/>
<path d="M40 23.2941H38.375L37.4 21.353L35.9375 24L33.5 21L32.0375 24L30.0875 21.7059L28.625 23.4707H27" stroke="white" stroke-opacity="0.32" stroke-width="1.62069" stroke-linecap="round" stroke-linejoin="round"/>
</g>
<defs>
<linearGradient id="paint0_linear_496_26192" x1="34" y1="9" x2="34" y2="36" gradientUnits="userSpaceOnUse">
<stop stop-color="white" stop-opacity="0"/>
<stop offset="1" stop-color="white"/>
</linearGradient>
<clipPath id="clip0_496_26192">
<rect width="65" height="65" fill="white"/>
</clipPath>
</defs>
</svg>
