<svg width="21" height="21" viewBox="0 0 21 21" fill="none" xmlns="http://www.w3.org/2000/svg">
<path d="M11.7031 3.02183C11.4625 3.10933 10.6094 3.52496 9.84375 3.96246C9.05625 4.39996 8.05 4.90308 7.56875 5.05621C6.69375 5.36246 5.6875 6.36871 5.6875 6.91559C5.6875 7.09059 5.84062 7.52809 6.01562 7.87809C6.51875 8.84059 7.63437 9.10309 9.77813 8.75309C10.6969 8.59996 11.6813 8.40309 11.9656 8.29371C12.3813 8.14059 12.6438 8.33746 13.9125 9.69371C15.6188 11.5312 15.925 12.1 15.5531 12.5593C15.4 12.7343 15.0719 12.9093 14.8313 12.9531C14.5688 12.9968 14.1969 13.3031 14 13.675C13.7375 14.1562 13.4531 14.3531 12.9281 14.3968C12.3594 14.4625 12.1625 14.6156 11.9219 15.1843C11.5938 15.9281 11.2438 16.1906 10.4781 16.1906C10.2375 16.1906 9.975 16.4093 9.84375 16.7156C9.47187 17.7437 8.44375 17.6343 7.175 16.4531C6.51875 15.8625 5.90625 15.9281 5.90625 16.6062C5.90625 17.1531 7.4375 18.5093 8.29063 18.7062C9.16563 18.8812 9.77813 18.6843 10.675 17.9187C11.0688 17.5687 11.5281 17.2843 11.6813 17.2843C11.8563 17.2843 12.0969 17.1531 12.2281 16.9781C12.425 16.7593 13.1469 16.65 14.7438 16.5843C16.7781 16.5187 17.0844 16.4531 17.85 15.9281C18.3313 15.5781 18.9219 15.3156 19.1625 15.3156C20.0813 15.3156 20.125 15.0093 20.125 9.93434C20.125 4.29059 20.1469 4.37809 18.2875 4.37809C17.0406 4.37809 16.5156 4.70621 16.7563 5.34059C16.8438 5.58121 17.1719 5.69059 17.85 5.69059H18.8125V9.80309V13.9375L17.5 14.6156C16.7563 15.0093 15.8594 15.3156 15.4219 15.3156C14.7219 15.3156 14.6781 15.2937 14.8969 14.8125C15.0063 14.55 15.4 14.1562 15.75 13.9593C16.0781 13.7625 16.5375 13.3468 16.7344 13.0406C17.3906 12.0343 17.0406 11.2031 14.9406 8.86246C13.2781 7.02496 12.9719 6.76246 12.4906 6.87184C12.1625 6.93746 11.2438 7.13434 10.3906 7.30934C9.55938 7.50621 8.55313 7.65934 8.18125 7.65934C7.56875 7.65934 7 7.33121 7 6.98121C7 6.89371 8.225 6.21558 9.73438 5.47184L12.4688 4.09371L13.8031 4.59684C14.9625 5.01246 15.1813 5.03434 15.4656 4.77184C15.9688 4.24684 15.5531 3.76558 14.1531 3.30621C12.775 2.82496 12.4469 2.80308 11.7031 3.02183Z" fill="white"/>
<path d="M1.225 4.28972C0.940625 4.5741 0.875 5.29597 0.875 8.75222C0.875 13.171 0.9625 13.5647 2.0125 13.5647C2.25313 13.5647 2.8875 13.9585 3.4125 14.4397C4.41875 15.3803 5.03125 15.4022 5.03125 14.5491C5.03125 13.9803 3.5 12.5366 2.69063 12.3397C2.1875 12.2085 2.1875 12.1647 2.1875 8.73035V5.25222H3.91563C5.18438 5.25222 5.70938 5.16472 5.90625 4.9241C6.125 4.6616 6.125 4.53035 5.90625 4.26785C5.5125 3.7866 1.70625 3.80847 1.225 4.28972Z" fill="white"/>
</svg>
