<svg width="24" height="24" viewBox="0 0 24 24" fill="none" xmlns="http://www.w3.org/2000/svg">
    <path d="M19 19L19 5C19 4.44772 18.5523 4 18 4L15 4C14.4477 4 14 4.44772 14 5L14 19C14 19.5523 14.4477 20 15 20H18C18.5523 20 19 19.5523 19 19Z" fill="white" stroke="white" stroke-width="2" stroke-linecap="round" stroke-linejoin="round"/>
    <path d="M10 19L10 5C10 4.44772 9.55229 4 9 4L6 4C5.44772 4 5 4.44772 5 5L5 19C5 19.5523 5.44772 20 6 20H9C9.55228 20 10 19.5523 10 19Z" fill="white" stroke="white" stroke-width="2" stroke-linecap="round" stroke-linejoin="round"/>
</svg>
