<svg width="24" height="24" viewBox="0 0 24 24" fill="none" xmlns="http://www.w3.org/2000/svg">
<path d="M19.9524 7.98315C19.9646 8.15674 19.9646 8.33032 19.9646 8.50551C19.9646 13.8436 15.837 20 8.28965 20V19.9968C6.06012 20 3.8769 19.3712 2 18.1857C2.32419 18.224 2.65001 18.2432 2.97663 18.2441C4.82429 18.2457 6.61913 17.6353 8.07272 16.5114C6.31688 16.4786 4.77716 15.3515 4.23928 13.706C4.85435 13.8227 5.48811 13.7987 6.09181 13.6364C4.17753 13.2556 2.80032 11.5997 2.80032 9.67664V9.62545C3.3707 9.93822 4.00934 10.1118 4.6626 10.131C2.85963 8.94468 2.30388 6.58324 3.39265 4.73696C5.47593 7.26079 8.54965 8.7951 11.8493 8.95749C11.5186 7.55438 11.9703 6.08408 13.0363 5.09774C14.689 3.56824 17.2883 3.64664 18.8417 5.27292C19.7607 5.09453 20.6415 4.76256 21.4475 4.29219C21.1412 5.22732 20.5001 6.02168 19.6437 6.52644C20.457 6.43205 21.2516 6.21766 22 5.89048C21.4491 6.70323 20.7552 7.41119 19.9524 7.98315Z" fill="white" fill-opacity="0.3"/>
</svg>
